<mxfile host="app.diagrams.net" agent="Mozilla/5.0 (Macintosh; Intel Mac OS X 10_15_7) AppleWebKit/537.36 (KHTML, like Gecko) Chrome/137.0.0.0 Safari/537.36" version="27.1.6">
  <diagram name="Page-1" id="n4NABgRLgoUGmfSuXv_I">
    <mxGraphModel dx="1426" dy="766" grid="1" gridSize="10" guides="1" tooltips="1" connect="1" arrows="1" fold="1" page="1" pageScale="1" pageWidth="850" pageHeight="1100" math="0" shadow="0">
      <root>
        <mxCell id="0" />
        <mxCell id="1" parent="0" />
        <mxCell id="ZyQngGtC3Ldmk1pkEZB4-50" value="" style="rounded=0;whiteSpace=wrap;html=1;strokeColor=#D0CEE2;fontColor=#1A1A1A;fillColor=light-dark(#5D7F99,#FFFFFF);" vertex="1" parent="1">
          <mxGeometry x="100" y="230" width="680" height="700" as="geometry" />
        </mxCell>
        <mxCell id="ZyQngGtC3Ldmk1pkEZB4-49" value="" style="rounded=1;whiteSpace=wrap;html=1;strokeColor=light-dark(#1A1A1A,#000000);fillColor=light-dark(#60A917,#FFF2CC);fontColor=#ffffff;" vertex="1" parent="1">
          <mxGeometry x="120" y="250" width="240" height="660" as="geometry" />
        </mxCell>
        <mxCell id="ZyQngGtC3Ldmk1pkEZB4-38" style="edgeStyle=orthogonalEdgeStyle;rounded=0;orthogonalLoop=1;jettySize=auto;html=1;entryX=0.5;entryY=0;entryDx=0;entryDy=0;labelBackgroundColor=none;fontColor=default;strokeColor=#736CA8;strokeWidth=2;" edge="1" parent="1" source="ZyQngGtC3Ldmk1pkEZB4-2" target="ZyQngGtC3Ldmk1pkEZB4-16">
          <mxGeometry relative="1" as="geometry" />
        </mxCell>
        <mxCell id="ZyQngGtC3Ldmk1pkEZB4-2" value="&lt;font face=&quot;Courier New&quot; style=&quot;font-size: 18px;&quot;&gt;socket()&lt;/font&gt;" style="swimlane;fontStyle=0;childLayout=stackLayout;horizontal=1;startSize=40;horizontalStack=0;resizeParent=1;resizeParentMax=0;resizeLast=0;collapsible=1;marginBottom=0;whiteSpace=wrap;html=1;labelBackgroundColor=none;fillColor=light-dark(#5D7F99,#D4E1F5);strokeColor=#D0CEE2;fontColor=light-dark(#1A1A1A,#000000);rounded=0;" vertex="1" parent="1">
          <mxGeometry x="160" y="290" width="160" height="70" as="geometry">
            <mxRectangle x="160" y="280" width="130" height="40" as="alternateBounds" />
          </mxGeometry>
        </mxCell>
        <mxCell id="ZyQngGtC3Ldmk1pkEZB4-3" value="&lt;font face=&quot;Verdana&quot;&gt;Store decrypt flag&lt;/font&gt;" style="text;strokeColor=none;fillColor=light-dark(#FFFFFF,#D4E1F5);align=left;verticalAlign=middle;spacingLeft=4;spacingRight=4;overflow=hidden;points=[[0,0.5],[1,0.5]];portConstraint=eastwest;rotatable=0;whiteSpace=wrap;html=1;labelBackgroundColor=none;fontColor=light-dark(#1A1A1A,#000000);rounded=0;gradientColor=none;" vertex="1" parent="ZyQngGtC3Ldmk1pkEZB4-2">
          <mxGeometry y="40" width="160" height="30" as="geometry" />
        </mxCell>
        <mxCell id="ZyQngGtC3Ldmk1pkEZB4-39" style="edgeStyle=orthogonalEdgeStyle;rounded=0;orthogonalLoop=1;jettySize=auto;html=1;entryX=0.5;entryY=0;entryDx=0;entryDy=0;labelBackgroundColor=none;fontColor=default;strokeColor=#736CA8;strokeWidth=2;" edge="1" parent="1" source="ZyQngGtC3Ldmk1pkEZB4-16" target="ZyQngGtC3Ldmk1pkEZB4-18">
          <mxGeometry relative="1" as="geometry" />
        </mxCell>
        <mxCell id="ZyQngGtC3Ldmk1pkEZB4-16" value="&lt;font face=&quot;Courier New&quot; style=&quot;font-size: 18px;&quot;&gt;bind()&lt;/font&gt;" style="swimlane;fontStyle=0;childLayout=stackLayout;horizontal=1;startSize=40;horizontalStack=0;resizeParent=1;resizeParentMax=0;resizeLast=0;collapsible=1;marginBottom=0;whiteSpace=wrap;html=1;labelBackgroundColor=none;fillColor=light-dark(#5D7F99,#D4E1F5);strokeColor=#D0CEE2;fontColor=light-dark(#1A1A1A,#000000);rounded=0;" vertex="1" parent="1">
          <mxGeometry x="160" y="400" width="160" height="40" as="geometry">
            <mxRectangle x="160" y="280" width="130" height="40" as="alternateBounds" />
          </mxGeometry>
        </mxCell>
        <mxCell id="ZyQngGtC3Ldmk1pkEZB4-53" value="" style="rounded=1;whiteSpace=wrap;html=1;strokeColor=light-dark(#1A1A1A,#000000);fillColor=light-dark(#60A917,#D5E8D4);fontColor=#ffffff;" vertex="1" parent="1">
          <mxGeometry x="520" y="250" width="240" height="660" as="geometry" />
        </mxCell>
        <mxCell id="ZyQngGtC3Ldmk1pkEZB4-40" style="edgeStyle=orthogonalEdgeStyle;rounded=0;orthogonalLoop=1;jettySize=auto;html=1;exitX=0.5;exitY=1;exitDx=0;exitDy=0;entryX=0.5;entryY=0;entryDx=0;entryDy=0;labelBackgroundColor=none;fontColor=default;strokeColor=#736CA8;strokeWidth=2;" edge="1" parent="1" source="ZyQngGtC3Ldmk1pkEZB4-18" target="ZyQngGtC3Ldmk1pkEZB4-23">
          <mxGeometry relative="1" as="geometry" />
        </mxCell>
        <mxCell id="ZyQngGtC3Ldmk1pkEZB4-18" value="&lt;font style=&quot;font-size: 18px;&quot; face=&quot;Courier New&quot;&gt;listen()&lt;/font&gt;" style="swimlane;fontStyle=0;childLayout=stackLayout;horizontal=1;startSize=40;horizontalStack=0;resizeParent=1;resizeParentMax=0;resizeLast=0;collapsible=1;marginBottom=0;whiteSpace=wrap;html=1;labelBackgroundColor=none;fillColor=light-dark(#5D7F99,#D4E1F5);strokeColor=#D0CEE2;fontColor=light-dark(#1A1A1A,#000000);rounded=0;align=center;verticalAlign=middle;fontFamily=Helvetica;fontSize=12;" vertex="1" parent="1">
          <mxGeometry x="160" y="480" width="160" height="40" as="geometry">
            <mxRectangle x="160" y="280" width="130" height="40" as="alternateBounds" />
          </mxGeometry>
        </mxCell>
        <mxCell id="ZyQngGtC3Ldmk1pkEZB4-35" style="edgeStyle=orthogonalEdgeStyle;rounded=0;orthogonalLoop=1;jettySize=auto;html=1;entryX=0.5;entryY=0;entryDx=0;entryDy=0;labelBackgroundColor=none;fontColor=default;strokeColor=#736CA8;strokeWidth=2;" edge="1" parent="1" source="ZyQngGtC3Ldmk1pkEZB4-19" target="ZyQngGtC3Ldmk1pkEZB4-27">
          <mxGeometry relative="1" as="geometry" />
        </mxCell>
        <mxCell id="ZyQngGtC3Ldmk1pkEZB4-19" value="&lt;font style=&quot;font-size: 18px;&quot; face=&quot;Courier New&quot;&gt;connect()&lt;/font&gt;" style="swimlane;fontStyle=0;childLayout=stackLayout;horizontal=1;startSize=40;horizontalStack=0;resizeParent=1;resizeParentMax=0;resizeLast=0;collapsible=1;marginBottom=0;whiteSpace=wrap;html=1;labelBackgroundColor=none;fillColor=light-dark(#5D7F99,#D4E1F5);strokeColor=#D0CEE2;fontColor=light-dark(#1A1A1A,#000000);rounded=0;align=center;verticalAlign=middle;fontFamily=Helvetica;fontSize=12;" vertex="1" parent="1">
          <mxGeometry x="560" y="560" width="160" height="100" as="geometry">
            <mxRectangle x="160" y="280" width="130" height="40" as="alternateBounds" />
          </mxGeometry>
        </mxCell>
        <mxCell id="ZyQngGtC3Ldmk1pkEZB4-26" value="&lt;font face=&quot;Verdana&quot;&gt;Open a raw socket&lt;/font&gt;" style="text;strokeColor=none;fillColor=light-dark(#FFFFFF,#D4E1F5);align=left;verticalAlign=middle;spacingLeft=4;spacingRight=4;overflow=hidden;points=[[0,0.5],[1,0.5]];portConstraint=eastwest;rotatable=0;whiteSpace=wrap;html=1;labelBackgroundColor=none;fontColor=light-dark(#1A1A1A,#000000);rounded=0;fontFamily=Helvetica;fontSize=12;fontStyle=0;horizontal=1;" vertex="1" parent="ZyQngGtC3Ldmk1pkEZB4-19">
          <mxGeometry y="40" width="160" height="30" as="geometry" />
        </mxCell>
        <mxCell id="ZyQngGtC3Ldmk1pkEZB4-20" value="&lt;font face=&quot;Courier New&quot;&gt;send&lt;/font&gt;&lt;font face=&quot;Verdana&quot;&gt; ping with the key&lt;/font&gt;" style="text;strokeColor=none;fillColor=light-dark(#FFFFFF,#D4E1F5);align=left;verticalAlign=middle;spacingLeft=4;spacingRight=4;overflow=hidden;points=[[0,0.5],[1,0.5]];portConstraint=eastwest;rotatable=0;whiteSpace=wrap;html=1;labelBackgroundColor=none;fontColor=light-dark(#1A1A1A,#000000);rounded=0;fontFamily=Helvetica;fontSize=12;fontStyle=0;horizontal=1;" vertex="1" parent="ZyQngGtC3Ldmk1pkEZB4-19">
          <mxGeometry y="70" width="160" height="30" as="geometry" />
        </mxCell>
        <mxCell id="ZyQngGtC3Ldmk1pkEZB4-30" style="edgeStyle=orthogonalEdgeStyle;rounded=0;orthogonalLoop=1;jettySize=auto;html=1;exitX=1;exitY=0.25;exitDx=0;exitDy=0;entryX=0;entryY=0.25;entryDx=0;entryDy=0;startArrow=classic;startFill=1;labelBackgroundColor=none;fontColor=default;strokeColor=#736CA8;strokeWidth=2;" edge="1" parent="1" source="ZyQngGtC3Ldmk1pkEZB4-23" target="ZyQngGtC3Ldmk1pkEZB4-19">
          <mxGeometry relative="1" as="geometry" />
        </mxCell>
        <mxCell id="ZyQngGtC3Ldmk1pkEZB4-43" value="Share&lt;div&gt;encryption&lt;/div&gt;&lt;div&gt;information&lt;/div&gt;" style="edgeLabel;html=1;align=center;verticalAlign=middle;resizable=0;points=[];strokeColor=#D0CEE2;fontColor=light-dark(#1A1A1A,#000000);fillColor=#5D7F99;fontFamily=Verdana;labelBackgroundColor=light-dark(#FFFFFF,#FFFFFF);fontSize=12;" vertex="1" connectable="0" parent="ZyQngGtC3Ldmk1pkEZB4-30">
          <mxGeometry y="-2" relative="1" as="geometry">
            <mxPoint as="offset" />
          </mxGeometry>
        </mxCell>
        <mxCell id="ZyQngGtC3Ldmk1pkEZB4-37" style="edgeStyle=orthogonalEdgeStyle;rounded=0;orthogonalLoop=1;jettySize=auto;html=1;entryX=0.5;entryY=0;entryDx=0;entryDy=0;labelBackgroundColor=none;fontColor=default;strokeColor=#736CA8;strokeWidth=2;" edge="1" parent="1" source="ZyQngGtC3Ldmk1pkEZB4-23" target="ZyQngGtC3Ldmk1pkEZB4-31">
          <mxGeometry relative="1" as="geometry" />
        </mxCell>
        <mxCell id="ZyQngGtC3Ldmk1pkEZB4-23" value="&lt;font style=&quot;font-size: 18px;&quot; face=&quot;Courier New&quot;&gt;accept()&lt;/font&gt;" style="swimlane;fontStyle=0;childLayout=stackLayout;horizontal=1;startSize=40;horizontalStack=0;resizeParent=1;resizeParentMax=0;resizeLast=0;collapsible=1;marginBottom=0;whiteSpace=wrap;html=1;labelBackgroundColor=none;fillColor=light-dark(#5D7F99,#D4E1F5);strokeColor=#D0CEE2;fontColor=light-dark(#1A1A1A,#000000);rounded=0;align=center;verticalAlign=middle;fontFamily=Helvetica;fontSize=12;" vertex="1" parent="1">
          <mxGeometry x="160" y="560" width="160" height="100" as="geometry">
            <mxRectangle x="160" y="280" width="130" height="40" as="alternateBounds" />
          </mxGeometry>
        </mxCell>
        <mxCell id="ZyQngGtC3Ldmk1pkEZB4-25" value="&lt;font face=&quot;Verdana&quot;&gt;Open a raw socket&lt;/font&gt;" style="text;strokeColor=none;fillColor=light-dark(#FFFFFF,#D4E1F5);align=left;verticalAlign=middle;spacingLeft=4;spacingRight=4;overflow=hidden;points=[[0,0.5],[1,0.5]];portConstraint=eastwest;rotatable=0;whiteSpace=wrap;html=1;labelBackgroundColor=none;fontColor=light-dark(#1A1A1A,#000000);rounded=0;fontFamily=Helvetica;fontSize=12;fontStyle=0;horizontal=1;" vertex="1" parent="ZyQngGtC3Ldmk1pkEZB4-23">
          <mxGeometry y="40" width="160" height="30" as="geometry" />
        </mxCell>
        <mxCell id="ZyQngGtC3Ldmk1pkEZB4-24" value="&lt;font face=&quot;Courier New&quot;&gt;recv&lt;/font&gt;&lt;font face=&quot;Verdana&quot;&gt; ping with the key&lt;/font&gt;" style="text;strokeColor=none;fillColor=light-dark(#FFFFFF,#D4E1F5);align=left;verticalAlign=middle;spacingLeft=4;spacingRight=4;overflow=hidden;points=[[0,0.5],[1,0.5]];portConstraint=eastwest;rotatable=0;whiteSpace=wrap;html=1;labelBackgroundColor=none;fontColor=light-dark(#1A1A1A,#000000);rounded=0;fontFamily=Helvetica;fontSize=12;fontStyle=0;horizontal=1;" vertex="1" parent="ZyQngGtC3Ldmk1pkEZB4-23">
          <mxGeometry y="70" width="160" height="30" as="geometry" />
        </mxCell>
        <mxCell id="ZyQngGtC3Ldmk1pkEZB4-33" style="edgeStyle=orthogonalEdgeStyle;rounded=0;orthogonalLoop=1;jettySize=auto;html=1;exitX=0;exitY=0.25;exitDx=0;exitDy=0;entryX=1;entryY=0.25;entryDx=0;entryDy=0;labelBackgroundColor=none;fontColor=default;strokeColor=#736CA8;strokeWidth=2;" edge="1" parent="1" source="ZyQngGtC3Ldmk1pkEZB4-27" target="ZyQngGtC3Ldmk1pkEZB4-31">
          <mxGeometry relative="1" as="geometry" />
        </mxCell>
        <mxCell id="ZyQngGtC3Ldmk1pkEZB4-48" value="Encrypted&lt;div&gt;communication&lt;/div&gt;" style="edgeLabel;html=1;align=center;verticalAlign=middle;resizable=0;points=[];strokeColor=#D0CEE2;fontColor=light-dark(#1A1A1A,#000000);fillColor=#5D7F99;fontFamily=Verdana;fontSize=12;labelBackgroundColor=light-dark(#FFFFFF,#FFFFFF);gradientColor=none;" vertex="1" connectable="0" parent="ZyQngGtC3Ldmk1pkEZB4-33">
          <mxGeometry x="0.0125" y="2" relative="1" as="geometry">
            <mxPoint as="offset" />
          </mxGeometry>
        </mxCell>
        <mxCell id="ZyQngGtC3Ldmk1pkEZB4-46" style="edgeStyle=orthogonalEdgeStyle;orthogonalLoop=1;jettySize=auto;html=1;entryX=0.5;entryY=0;entryDx=0;entryDy=0;strokeColor=#736CA8;fontColor=#1A1A1A;strokeWidth=2;" edge="1" parent="1" source="ZyQngGtC3Ldmk1pkEZB4-27" target="ZyQngGtC3Ldmk1pkEZB4-45">
          <mxGeometry relative="1" as="geometry" />
        </mxCell>
        <mxCell id="ZyQngGtC3Ldmk1pkEZB4-27" value="&lt;font style=&quot;font-size: 18px;&quot; face=&quot;Courier New&quot;&gt;send()&lt;/font&gt;" style="swimlane;fontStyle=0;childLayout=stackLayout;horizontal=1;startSize=40;horizontalStack=0;resizeParent=1;resizeParentMax=0;resizeLast=0;collapsible=1;marginBottom=0;whiteSpace=wrap;html=1;labelBackgroundColor=none;fillColor=light-dark(#5D7F99,#D4E1F5);strokeColor=#D0CEE2;fontColor=light-dark(#1A1A1A,#000000);rounded=0;align=center;verticalAlign=middle;fontFamily=Helvetica;fontSize=12;" vertex="1" parent="1">
          <mxGeometry x="560" y="720" width="160" height="70" as="geometry">
            <mxRectangle x="160" y="280" width="130" height="40" as="alternateBounds" />
          </mxGeometry>
        </mxCell>
        <mxCell id="ZyQngGtC3Ldmk1pkEZB4-28" value="&lt;font face=&quot;Verdana&quot;&gt;Encrypt message&lt;/font&gt;" style="text;strokeColor=none;fillColor=light-dark(#FFFFFF,#D4E1F5);align=left;verticalAlign=middle;spacingLeft=4;spacingRight=4;overflow=hidden;points=[[0,0.5],[1,0.5]];portConstraint=eastwest;rotatable=0;whiteSpace=wrap;html=1;labelBackgroundColor=none;fontColor=light-dark(#1A1A1A,#000000);rounded=0;fontFamily=Helvetica;fontSize=12;fontStyle=0;horizontal=1;" vertex="1" parent="ZyQngGtC3Ldmk1pkEZB4-27">
          <mxGeometry y="40" width="160" height="30" as="geometry" />
        </mxCell>
        <mxCell id="ZyQngGtC3Ldmk1pkEZB4-47" style="edgeStyle=orthogonalEdgeStyle;orthogonalLoop=1;jettySize=auto;html=1;entryX=0.5;entryY=0;entryDx=0;entryDy=0;strokeColor=#736CA8;fontColor=#1A1A1A;strokeWidth=2;" edge="1" parent="1" source="ZyQngGtC3Ldmk1pkEZB4-31" target="ZyQngGtC3Ldmk1pkEZB4-44">
          <mxGeometry relative="1" as="geometry" />
        </mxCell>
        <mxCell id="ZyQngGtC3Ldmk1pkEZB4-31" value="&lt;font style=&quot;font-size: 18px;&quot; face=&quot;Courier New&quot;&gt;recv()&lt;/font&gt;" style="swimlane;fontStyle=0;childLayout=stackLayout;horizontal=1;startSize=40;horizontalStack=0;resizeParent=1;resizeParentMax=0;resizeLast=0;collapsible=1;marginBottom=0;whiteSpace=wrap;html=1;labelBackgroundColor=none;fillColor=light-dark(#5D7F99,#D4E1F5);strokeColor=#D0CEE2;fontColor=light-dark(#1A1A1A,#000000);rounded=0;align=center;verticalAlign=middle;fontFamily=Helvetica;fontSize=12;" vertex="1" parent="1">
          <mxGeometry x="160" y="720" width="160" height="70" as="geometry">
            <mxRectangle x="160" y="280" width="130" height="40" as="alternateBounds" />
          </mxGeometry>
        </mxCell>
        <mxCell id="ZyQngGtC3Ldmk1pkEZB4-32" value="&lt;font face=&quot;Verdana&quot;&gt;Decrypt message&lt;/font&gt;" style="text;strokeColor=none;fillColor=light-dark(#FFFFFF,#D4E1F5);align=left;verticalAlign=middle;spacingLeft=4;spacingRight=4;overflow=hidden;points=[[0,0.5],[1,0.5]];portConstraint=eastwest;rotatable=0;whiteSpace=wrap;html=1;labelBackgroundColor=none;fontColor=light-dark(#1A1A1A,#000000);rounded=0;fontFamily=Helvetica;fontSize=12;fontStyle=0;horizontal=1;" vertex="1" parent="ZyQngGtC3Ldmk1pkEZB4-31">
          <mxGeometry y="40" width="160" height="30" as="geometry" />
        </mxCell>
        <mxCell id="ZyQngGtC3Ldmk1pkEZB4-36" style="edgeStyle=orthogonalEdgeStyle;rounded=0;orthogonalLoop=1;jettySize=auto;html=1;entryX=0.5;entryY=0;entryDx=0;entryDy=0;labelBackgroundColor=none;fontColor=default;strokeColor=#736CA8;strokeWidth=2;" edge="1" parent="1" source="ZyQngGtC3Ldmk1pkEZB4-7" target="ZyQngGtC3Ldmk1pkEZB4-19">
          <mxGeometry relative="1" as="geometry" />
        </mxCell>
        <mxCell id="ZyQngGtC3Ldmk1pkEZB4-44" value="&lt;font style=&quot;font-size: 18px;&quot; face=&quot;Courier New&quot;&gt;close()&lt;/font&gt;" style="swimlane;fontStyle=0;childLayout=stackLayout;horizontal=1;startSize=40;horizontalStack=0;resizeParent=1;resizeParentMax=0;resizeLast=0;collapsible=1;marginBottom=0;whiteSpace=wrap;html=1;labelBackgroundColor=none;fillColor=light-dark(#5D7F99,#D4E1F5);strokeColor=#D0CEE2;fontColor=light-dark(#1A1A1A,#000000);rounded=0;align=center;verticalAlign=middle;fontFamily=Helvetica;fontSize=12;" vertex="1" parent="1">
          <mxGeometry x="160" y="830" width="160" height="40" as="geometry">
            <mxRectangle x="160" y="280" width="130" height="40" as="alternateBounds" />
          </mxGeometry>
        </mxCell>
        <mxCell id="ZyQngGtC3Ldmk1pkEZB4-45" value="&lt;font style=&quot;font-size: 18px;&quot; face=&quot;Courier New&quot;&gt;close()&lt;/font&gt;" style="swimlane;fontStyle=0;childLayout=stackLayout;horizontal=1;startSize=40;horizontalStack=0;resizeParent=1;resizeParentMax=0;resizeLast=0;collapsible=1;marginBottom=0;whiteSpace=wrap;html=1;labelBackgroundColor=none;fillColor=light-dark(#5D7F99,#D4E1F5);strokeColor=#D0CEE2;fontColor=light-dark(#1A1A1A,#000000);rounded=0;align=center;verticalAlign=middle;fontFamily=Helvetica;fontSize=12;" vertex="1" parent="1">
          <mxGeometry x="560" y="830" width="160" height="40" as="geometry">
            <mxRectangle x="160" y="280" width="130" height="40" as="alternateBounds" />
          </mxGeometry>
        </mxCell>
        <mxCell id="ZyQngGtC3Ldmk1pkEZB4-51" value="Server" style="text;html=1;align=center;verticalAlign=middle;whiteSpace=wrap;rounded=0;fontFamily=Verdana;fontSize=20;fontColor=light-dark(#1A1A1A,#000000);fontStyle=0;labelBackgroundColor=none;horizontal=1;" vertex="1" parent="1">
          <mxGeometry x="210" y="250" width="60" height="30" as="geometry" />
        </mxCell>
        <mxCell id="ZyQngGtC3Ldmk1pkEZB4-54" value="Client" style="text;html=1;align=center;verticalAlign=middle;whiteSpace=wrap;rounded=0;fontFamily=Verdana;fontSize=20;fontColor=light-dark(#1A1A1A,#000000);fontStyle=0;labelBackgroundColor=none;horizontal=1;" vertex="1" parent="1">
          <mxGeometry x="610" y="250" width="60" height="30" as="geometry" />
        </mxCell>
        <mxCell id="ZyQngGtC3Ldmk1pkEZB4-7" value="&lt;font style=&quot;font-size: 18px;&quot; face=&quot;Courier New&quot;&gt;socket()&lt;/font&gt;" style="swimlane;fontStyle=0;childLayout=stackLayout;horizontal=1;startSize=40;horizontalStack=0;resizeParent=1;resizeParentMax=0;resizeLast=0;collapsible=1;marginBottom=0;whiteSpace=wrap;html=1;labelBackgroundColor=none;fillColor=light-dark(#5D7F99,#D4E1F5);strokeColor=#D0CEE2;fontColor=light-dark(#1A1A1A,#000000);rounded=0;align=center;verticalAlign=middle;fontFamily=Helvetica;fontSize=12;" vertex="1" parent="1">
          <mxGeometry x="560" y="290" width="160" height="100" as="geometry">
            <mxRectangle x="160" y="280" width="130" height="40" as="alternateBounds" />
          </mxGeometry>
        </mxCell>
        <mxCell id="ZyQngGtC3Ldmk1pkEZB4-9" value="&lt;font face=&quot;Verdana&quot;&gt;Generate random key&lt;/font&gt;" style="text;strokeColor=none;fillColor=light-dark(#FFFFFF,#D4E1F5);align=left;verticalAlign=middle;spacingLeft=4;spacingRight=4;overflow=hidden;points=[[0,0.5],[1,0.5]];portConstraint=eastwest;rotatable=0;whiteSpace=wrap;html=1;labelBackgroundColor=none;fontColor=light-dark(#1A1A1A,#000000);rounded=0;fontFamily=Helvetica;fontSize=12;fontStyle=0;horizontal=1;" vertex="1" parent="ZyQngGtC3Ldmk1pkEZB4-7">
          <mxGeometry y="40" width="160" height="30" as="geometry" />
        </mxCell>
        <mxCell id="ZyQngGtC3Ldmk1pkEZB4-8" value="&lt;font face=&quot;Verdana&quot;&gt;Store encrypt flag &amp;amp; key&lt;/font&gt;" style="text;strokeColor=none;fillColor=light-dark(#FFFFFF,#D4E1F5);align=left;verticalAlign=middle;spacingLeft=4;spacingRight=4;overflow=hidden;points=[[0,0.5],[1,0.5]];portConstraint=eastwest;rotatable=0;whiteSpace=wrap;html=1;labelBackgroundColor=none;fontColor=light-dark(#1A1A1A,#000000);rounded=0;fontFamily=Helvetica;fontSize=12;fontStyle=0;horizontal=1;" vertex="1" parent="ZyQngGtC3Ldmk1pkEZB4-7">
          <mxGeometry y="70" width="160" height="30" as="geometry" />
        </mxCell>
      </root>
    </mxGraphModel>
  </diagram>
</mxfile>
